<?xml version="1.0" standalone="no"?>
<!DOCTYPE svg PUBLIC "-//W3C//DTD SVG 20010904//EN"
 "http://www.w3.org/TR/2001/REC-SVG-20010904/DTD/svg10.dtd">
<svg version="1.0" xmlns="http://www.w3.org/2000/svg"
 width="980.000000pt" height="980.000000pt" viewBox="0 0 980.000000 980.000000"
 preserveAspectRatio="xMidYMid meet">
<metadata>
Created by potrace 1.14, written by Peter Selinger 2001-2017
</metadata>
<g transform="translate(0.000000,980.000000) scale(0.100000,-0.100000)"
fill="#000000" stroke="none">
<path d="M4740 8665 c-321 -56 -475 -141 -1030 -573 -301 -235 -323 -242 -740
-251 -281 -6 -297 -7 -342 -29 -111 -55 -161 -203 -107 -322 15 -34 147 -172
549 -575 l530 -530 -102 -103 c-56 -56 -102 -101 -104 -100 -1 2 -238 237
-526 524 -490 488 -526 522 -577 539 -62 20 -150 17 -198 -8 -47 -25 -102 -87
-118 -137 -12 -35 -15 -97 -15 -281 1 -294 -14 -397 -75 -520 -15 -31 -122
-180 -237 -330 -308 -400 -393 -537 -461 -739 -83 -244 -83 -452 0 -699 69
-206 165 -362 463 -744 297 -381 302 -393 310 -822 5 -279 6 -292 29 -338 39
-80 120 -127 218 -127 108 1 103 -4 678 571 l530 529 102 -102 103 -103 -524
-525 c-471 -473 -525 -530 -540 -574 -34 -103 -12 -199 60 -266 24 -22 56 -46
72 -52 17 -8 132 -15 322 -19 417 -9 447 -19 720 -233 218 -171 440 -335 529
-390 309 -191 609 -252 894 -183 279 69 417 151 935 555 301 234 323 242 747
251 330 7 329 7 395 73 70 70 91 186 49 278 -15 34 -146 171 -549 575 l-530
530 102 102 103 102 520 -518 c286 -285 536 -527 555 -537 25 -13 56 -18 110
-19 84 0 126 16 180 68 62 60 64 73 71 397 8 405 20 444 215 696 245 317 362
477 422 577 157 264 225 542 188 767 -50 309 -144 484 -521 971 -294 379 -295
380 -304 809 -7 309 -9 323 -57 385 -60 79 -204 110 -297 64 -28 -14 -220
-198 -572 -550 l-530 -529 -102 102 -103 103 505 505 c278 278 519 526 536
552 60 92 47 225 -28 303 -65 67 -75 69 -403 76 -330 7 -360 12 -495 79 -44
22 -140 87 -215 146 -387 303 -542 410 -696 484 -222 106 -458 148 -644 115z
m340 -193 c248 -64 395 -156 930 -579 128 -102 250 -166 378 -200 91 -24 115
-26 379 -31 255 -4 283 -6 298 -22 42 -47 40 -49 -501 -593 -281 -283 -516
-517 -522 -521 -6 -4 -58 21 -114 55 -648 392 -1442 386 -2083 -16 l-108 -68
-528 532 c-291 292 -530 539 -530 548 -2 31 2 47 18 64 12 15 51 18 296 21
263 5 289 7 378 30 161 43 216 76 489 288 474 369 605 446 860 501 104 23 249
19 360 -9z m2563 -1370 c12 -14 16 -70 20 -297 5 -313 15 -377 81 -520 41 -89
70 -131 206 -305 359 -458 456 -614 516 -836 37 -136 39 -300 6 -424 -66 -244
-131 -351 -497 -826 -287 -370 -315 -452 -315 -908 0 -216 -1 -234 -19 -250
-48 -44 -47 -44 -601 507 -286 284 -520 520 -520 523 0 2 28 51 62 107 191
316 288 660 288 1022 0 383 -102 736 -305 1059 l-68 109 527 524 c290 288 537
528 549 532 27 10 51 4 70 -17z m-4885 -542 c287 -286 522 -523 522 -526 0 -3
-26 -47 -57 -97 -396 -639 -391 -1449 12 -2091 l68 -109 -531 -528 c-292 -291
-539 -530 -549 -530 -31 -2 -47 2 -64 18 -15 12 -18 51 -21 296 -5 265 -7 288
-31 380 -37 141 -92 235 -268 461 -85 109 -172 222 -193 250 -298 385 -395
693 -316 1001 54 210 140 363 376 666 255 329 299 390 336 463 22 44 52 123
66 175 23 89 25 115 29 376 5 309 7 315 67 315 28 0 89 -58 554 -520z m2397
115 c510 -77 956 -360 1238 -785 108 -164 178 -314 230 -495 53 -184 61 -253
61 -500 0 -201 -2 -243 -22 -335 -91 -420 -293 -765 -604 -1027 -236 -200
-496 -325 -818 -394 -144 -32 -501 -34 -655 -5 -251 47 -468 135 -676 274
-403 270 -674 676 -772 1156 -30 150 -32 498 -4 646 95 495 366 907 776 1182
218 146 469 243 728 282 126 19 396 20 518 1z m1433 -3899 c287 -289 526 -535
531 -548 12 -32 -6 -77 -32 -83 -12 -2 -143 -6 -292 -8 -251 -4 -277 -6 -366
-29 -96 -26 -200 -73 -274 -125 -23 -15 -128 -95 -234 -178 -388 -302 -534
-394 -721 -453 -188 -59 -311 -65 -482 -22 -238 60 -352 128 -847 513 -227
176 -313 225 -460 265 -89 23 -115 25 -376 29 -309 5 -315 7 -315 67 0 28 57
89 520 554 286 287 522 522 526 522 3 0 47 -26 97 -57 641 -397 1459 -391
2097 16 52 33 97 60 100 61 3 0 241 -236 528 -524z"/>
</g>
</svg>
